# xmcd
#
# Track frame offsets: 
#        182
#        18385
#        44865
#        67722
#        87012
#        105932
#        123520
#        136120
#        153870
#        168015
#        184485
#        200242
#
# Disc length: 2908 seconds
#
# Revision: 3
# Processed by: cddbd v1.5.2PL0 Copyright (c) Steve Scherf et al.
# Submitted via: ExactAudioCopy v0.99pb4
#
DISCID=980b5a0c
DTITLE=Hubert Sumlin - My Guitar And Me
DYEAR=1994
DGENRE=blues
TTITLE0=Happy With My French Friends
TTITLE1=Broke And Hungry
TTITLE2=Give The Name Jacquot
TTITLE3=My Guitar And Me
TTITLE4=Groove
TTITLE5=Easy, Hubert, Easy
TTITLE6=Don't Forget
TTITLE7=I Wonder Why
TTITLE8=Boogin' All Alone
TTITLE9=The Last Boogie
TTITLE10=I'll Be Home On Tuesday
TTITLE11=Jerking In Paris
EXTD=
EXTT0=
EXTT1=
EXTT2=
EXTT3=
EXTT4=
EXTT5=
EXTT6=
EXTT7=
EXTT8=
EXTT9=
EXTT10=
EXTT11=
PLAYORDER=
